<svg xmlns="http://www.w3.org/2000/svg" viewBox="0 0 1600 1000" role="img" aria-labelledby="title desc">
  <title id="title">Ocean abstract backdrop</title>
  <desc id="desc">Deep blue gradients with flowing wave lines.</desc>
  <defs>
    <linearGradient id="bg" x1="0" y1="0" x2="0" y2="1">
      <stop offset="0%" stop-color="#071a2c"/>
      <stop offset="45%" stop-color="#0b3558"/>
      <stop offset="100%" stop-color="#16719f"/>
    </linearGradient>
  </defs>
  <rect width="1600" height="1000" fill="url(#bg)"/>
  <g fill="none" stroke="#b9ecff" stroke-opacity="0.28" stroke-width="6">
    <path d="M-120 320 C 140 250, 260 410, 520 340 S 900 250, 1180 340 S 1500 410, 1740 330"/>
    <path d="M-140 460 C 120 390, 250 550, 510 480 S 880 390, 1160 480 S 1490 560, 1720 470"/>
    <path d="M-100 610 C 160 540, 300 700, 560 630 S 940 540, 1220 630 S 1510 710, 1760 620"/>
    <path d="M-80 760 C 200 690, 330 850, 590 780 S 980 690, 1260 780 S 1540 860, 1780 770"/>
  </g>
</svg>
